<?xml version="1.0" encoding="UTF-8" standalone="no"?>
<!-- Created with Inkscape (http://www.inkscape.org/) -->

<svg
   xmlns:dc="http://purl.org/dc/elements/1.1/"
   xmlns:cc="http://creativecommons.org/ns#"
   xmlns:rdf="http://www.w3.org/1999/02/22-rdf-syntax-ns#"
   xmlns:svg="http://www.w3.org/2000/svg"
   xmlns="http://www.w3.org/2000/svg"
   xmlns:sodipodi="http://sodipodi.sourceforge.net/DTD/sodipodi-0.dtd"
   xmlns:inkscape="http://www.inkscape.org/namespaces/inkscape"
   width="107.23587mm"
   height="106.70108mm"
   viewBox="0 0 379.96962 378.07469"
   id="svg4447"
   version="1.1"
   inkscape:version="0.91 r13725"
   sodipodi:docname="tool.svg">
  <defs
     id="defs4449" />
  <sodipodi:namedview
     id="base"
     pagecolor="#ffffff"
     bordercolor="#666666"
     borderopacity="1.0"
     inkscape:pageopacity="0.0"
     inkscape:pageshadow="2"
     inkscape:zoom="0.7"
     inkscape:cx="136.64674"
     inkscape:cy="-99.557011"
     inkscape:document-units="px"
     inkscape:current-layer="layer1"
     showgrid="false"
     fit-margin-top="10"
     fit-margin-left="10"
     fit-margin-right="10"
     fit-margin-bottom="10"
     inkscape:window-width="1871"
     inkscape:window-height="1062"
     inkscape:window-x="49"
     inkscape:window-y="18"
     inkscape:window-maximized="1" />
  <metadata
     id="metadata4452">
    <rdf:RDF>
      <cc:Work
         rdf:about="">
        <dc:format>image/svg+xml</dc:format>
        <dc:type
           rdf:resource="http://purl.org/dc/dcmitype/StillImage" />
        <dc:title></dc:title>
      </cc:Work>
    </rdf:RDF>
  </metadata>
  <g
     inkscape:label="Layer 1"
     inkscape:groupmode="layer"
     id="layer1"
     transform="translate(31.980337,34.889423)">
    <g
       id="g5029"
       transform="matrix(2.1387824,0,0,2.1387824,-575.29235,-941.68334)">
      <path
         inkscape:connector-curvature="0"
         id="path92"
         style="fill:#231f20;fill-opacity:1;fill-rule:evenodd;stroke:none"
         d="m 400.98995,537.57981 1.85625,-6.53375 -50.00374,-14.20625 -1.85625,6.53375 50.00374,14.20625 0,0" />
      <path
         inkscape:connector-curvature="0"
         id="path94"
         style="fill:#231f20;fill-opacity:1;fill-rule:evenodd;stroke:none"
         d="m 412.0937,542.95981 3.025,-10.65125 -13.375,-6.14125 c -3.89125,-1.7875 -8.44875,1.2425 -9.61875,5.3625 l 0,10e-4 c -1.17125,4.12 1.11125,9.0925 5.3625,9.61875 l 14.60625,1.81 0,0" />
      <path
         inkscape:connector-curvature="0"
         id="path96"
         style="fill:#231f20;fill-opacity:1;fill-rule:evenodd;stroke:none"
         d="m 335.28371,519.50606 c 0,-1.655 1.3425,-2.99875 2.9975,-2.99875 1.655,0 2.9975,1.34375 2.9975,2.99875 0,1.655 -1.3425,2.99625 -2.9975,2.9975 -1.655,-10e-4 -2.9975,-1.3425 -2.9975,-2.9975 l 0,0 z m -37.60625,-5.2625 c 5.70875,-0.19875 11.8275,-0.4125 18.4125,-0.6425 7.1025,-0.24625 14.79125,-0.515 23.13375,-0.805 1.15375,-0.0412 2.2075,0.30625 2.9775,0.8975 0.77375,0.59625 1.25375,1.44 1.25375,2.3825 0,1.14125 0,2.28375 0,3.425 0,1.14125 0,2.28375 0,3.425 0,1.88375 -1.9225,3.36375 -4.2275,3.29125 -8.35375,-0.26125 -16.04375,-0.5 -23.15125,-0.7225 -6.59125,-0.205 -12.715,-0.39625 -18.42125,-0.57375 0.4125,-0.785 0.73625,-1.635 0.955,-2.53125 0.2175,-0.89875 0.34,-1.84625 0.34125,-2.8175 0,-0.97375 -0.11875,-1.9125 -0.33375,-2.8075 -0.21375,-0.89125 -0.53375,-1.73625 -0.94,-2.52125 l 0,0 z m -26.86,-1.60125 c 2.3825,-4.60375 7.08625,-7.7375 12.49875,-7.7375 7.81875,0 14.15875,6.53875 14.15875,14.60125 0,8.06125 -6.34,14.6 -14.15875,14.6 -5.4125,0 -10.11625,-3.13375 -12.49875,-7.7375 l 12.53,0 5.94375,-6.8625 -5.94375,-6.86375 -12.53,0 0,0" />
      <path
         inkscape:connector-curvature="0"
         id="path98"
         style="fill:none;stroke:#ffffff;stroke-width:0.27000001;stroke-linecap:butt;stroke-linejoin:miter;stroke-miterlimit:22.92560005;stroke-dasharray:none;stroke-opacity:1"
         d="m 335.28371,519.50606 c 0,-1.655 1.3425,-2.99875 2.9975,-2.99875 1.655,0 2.9975,1.34375 2.9975,2.99875 0,1.655 -1.3425,2.99625 -2.9975,2.9975 -1.655,-10e-4 -2.9975,-1.3425 -2.9975,-2.9975 l 0,0 z m -37.60625,-5.2625 c 5.70875,-0.19875 11.8275,-0.4125 18.4125,-0.6425 7.1025,-0.24625 14.79125,-0.515 23.13375,-0.805 1.15375,-0.0412 2.2075,0.30625 2.9775,0.8975 0.77375,0.59625 1.25375,1.44 1.25375,2.3825 0,1.14125 0,2.28375 0,3.425 0,1.14125 0,2.28375 0,3.425 0,1.88375 -1.9225,3.36375 -4.2275,3.29125 -8.35375,-0.26125 -16.04375,-0.5 -23.15125,-0.7225 -6.59125,-0.205 -12.715,-0.39625 -18.42125,-0.57375 0.4125,-0.785 0.73625,-1.635 0.955,-2.53125 0.2175,-0.89875 0.34,-1.84625 0.34125,-2.8175 0,-0.97375 -0.11875,-1.9125 -0.33375,-2.8075 -0.21375,-0.89125 -0.53375,-1.73625 -0.94,-2.52125 l 0,0 z m -26.86,-1.60125 c 2.3825,-4.60375 7.08625,-7.7375 12.49875,-7.7375 7.81875,0 14.15875,6.53875 14.15875,14.60125 0,8.06125 -6.34,14.6 -14.15875,14.6 -5.4125,0 -10.11625,-3.13375 -12.49875,-7.7375 l 12.53,0 5.94375,-6.8625 -5.94375,-6.86375 -12.53,0 0,0 z" />
      <path
         inkscape:connector-curvature="0"
         id="path100"
         style="fill:#231f20;fill-opacity:1;fill-rule:evenodd;stroke:none"
         d="m 373.0412,581.25606 -5.53374,-21.33875 c -2.19875,-8.47875 -4.66375,-17.985 -7.44125,-28.695 l -16.075,3.8625 -0.78125,1.19375 -2.1175,3.2275 3.6475,1.265 3.2,1.1075 -1.85625,2.8325 -2.1175,3.22875 3.6475,1.26375 3.2,1.1075 -1.8575,2.83375 -2.11625,3.2275 3.6475,1.26375 3.2,1.1075 -1.85625,2.83375 -2.11625,3.2275 3.6475,1.26375 3.19875,1.11 -1.85625,2.83125 -2.11625,3.22875 3.64625,1.26375 3.2,1.10875 -1.85625,2.8325 -2.11625,3.2275 3.6475,1.26375 3.18625,1.105 0.3025,-0.0788 0.0713,-0.0175 10.37124,-2.6875 0,0" />
      <path
         inkscape:connector-curvature="0"
         id="path102"
         style="fill:none;stroke:#ffffff;stroke-width:0.27000001;stroke-linecap:butt;stroke-linejoin:miter;stroke-miterlimit:22.92560005;stroke-dasharray:none;stroke-opacity:1"
         d="m 373.0412,581.25606 -5.53374,-21.33875 c -2.19875,-8.47875 -4.66375,-17.985 -7.44125,-28.695 l -16.075,3.8625 -0.78125,1.19375 -2.1175,3.2275 3.6475,1.265 3.2,1.1075 -1.85625,2.8325 -2.1175,3.22875 3.6475,1.26375 3.2,1.1075 -1.8575,2.83375 -2.11625,3.2275 3.6475,1.26375 3.2,1.1075 -1.85625,2.83375 -2.11625,3.2275 3.6475,1.26375 3.19875,1.11 -1.85625,2.83125 -2.11625,3.22875 3.64625,1.26375 3.2,1.10875 -1.85625,2.8325 -2.11625,3.2275 3.6475,1.26375 3.18625,1.105 0.3025,-0.0788 0.0713,-0.0175 10.37124,-2.6875 0,0 z" />
      <path
         inkscape:connector-curvature="0"
         id="path104"
         style="fill:#231f20;fill-opacity:1;fill-rule:evenodd;stroke:none"
         d="m 330.16621,493.99481 -10.345,10.345 -26.58,-26.58 c -7.46125,-7.46125 -9.79375,-18.185 -6.9975,-27.6875 l 43.9225,43.9225 0,0" />
      <path
         inkscape:connector-curvature="0"
         id="path106"
         style="fill:#231f20;fill-opacity:1;fill-rule:evenodd;stroke:none"
         d="m 337.27496,465.61731 7.54625,-2.93375 c 0.55875,-0.2175 1.1925,0.0612 1.41,0.62 l 0.39375,1.01375 -0.9275,0.36125 c 7.905,3.28125 14.455,8.42125 18.7375,16.2625 3.6625,6.705 5.135,14.36 5.74375,21.90375 0.0725,0.8825 0.1425,1.76625 0.21375,2.64875 0.30499,3.84875 -4.885,4.5825 -5.29625,0.42875 l -0.21375,-2.65 c -0.54625,-6.76125 -1.8275,-13.77125 -5.11125,-19.78375 -4.4625,-8.17 -11.7675,-12.8 -20.51,-15.47625 l -1.1975,-0.365 -0.78875,-2.03 0,0" />
      <path
         inkscape:connector-curvature="0"
         id="path108"
         style="fill:#231f20;fill-opacity:1;fill-rule:evenodd;stroke:none"
         d="m 334.75746,466.85231 -6.73,4.5025 c -0.4975,0.33375 -0.6325,1.01375 -0.29875,1.51 l 0.605,0.90625 0.8275,-0.55375 c -1.84125,8.3575 -1.38125,16.67 2.59,24.675 3.39625,6.8425 8.82375,12.43625 14.6575,17.25875 0.6825,0.565 1.36625,1.13 2.04875,1.69375 2.97875,2.455 6.55625,-1.37875 3.38625,-4.095 l -2.04875,-1.69375 c -5.2275,-4.3225 -10.23875,-9.39 -13.28375,-15.52625 -4.1375,-8.34 -3.74625,-16.97875 -0.92875,-25.6775 l 0.38625,-1.19 -1.21125,-1.81 0,0" />
      <path
         inkscape:connector-curvature="0"
         id="path110"
         style="fill:#231f20;fill-opacity:1;fill-rule:evenodd;stroke:none"
         d="m 321.08121,444.75481 c -0.825,5.01375 0.0762,10.8075 2.90625,16.2375 1.315,2.525 2.9325,4.75125 4.7475,6.63375 2.47625,-0.4125 4.91125,-1.2075 7.2325,-2.4175 2.32,-1.2075 4.3675,-2.74875 6.12375,-4.54 -0.5025,-2.56625 -1.4,-5.16875 -2.715,-7.69375 -2.87125,-5.5125 -7.1875,-9.61 -11.8475,-11.78375 l 4.87875,17.3775 -11.32625,-13.81375 0,0" />
      <path
         inkscape:connector-curvature="0"
         id="path112"
         style="fill:none;stroke:#231f20;stroke-width:0.70862502;stroke-linecap:butt;stroke-linejoin:miter;stroke-miterlimit:22.92560005;stroke-dasharray:none;stroke-opacity:1"
         d="m 321.08121,444.75481 c -0.825,5.01375 0.0762,10.8075 2.90625,16.2375 1.315,2.525 2.9325,4.75125 4.7475,6.63375 2.47625,-0.4125 4.91125,-1.2075 7.2325,-2.4175 2.32,-1.2075 4.3675,-2.74875 6.12375,-4.54 -0.5025,-2.56625 -1.4,-5.16875 -2.715,-7.69375 -2.87125,-5.5125 -7.1875,-9.61 -11.8475,-11.78375 l 4.87875,17.3775 -11.32625,-13.81375 0,0 z" />
      <path
         inkscape:connector-curvature="0"
         id="path114"
         style="fill:#ffffff;fill-opacity:1;fill-rule:evenodd;stroke:none"
         d="m 316.45121,490.62356 0,0 c -5.3675,5.3675 -5.3675,14.1525 0,19.52125 l 22.92125,22.92125 c 5.36875,5.3675 14.1525,5.3675 19.52125,0 l 0,0 c 5.3675,-5.3675 5.3675,-14.1525 0,-19.52 l -22.9225,-22.9225 c -5.36875,-5.3675 -14.1525,-5.3675 -19.52,0 l 0,0" />
      <path
         inkscape:connector-curvature="0"
         id="path116"
         style="fill:#231f20;fill-opacity:1;fill-rule:evenodd;stroke:none"
         d="m 317.79246,491.96606 0,0 c -4.63,4.63 -4.63,12.20625 0,16.83625 l 22.9225,22.92125 c 4.63,4.63125 12.20625,4.63125 16.83625,0 l 0,0 c 4.63,-4.63 4.63,-12.205 0,-16.83625 l -22.92125,-22.92125 c -4.63125,-4.63125 -12.2075,-4.63125 -16.8375,0 l 0,0" />
      <path
         inkscape:connector-curvature="0"
         id="path118"
         style="fill:#ffffff;fill-opacity:1;fill-rule:evenodd;stroke:none"
         d="m 322.66121,496.83356 c -1.34375,1.345 -1.34375,3.52375 0,4.87 1.345,1.34375 3.52375,1.34375 4.86875,0 1.345,-1.34625 1.345,-3.525 0,-4.87 -1.345,-1.34375 -3.52375,-1.34375 -4.86875,0 l 0,0" />
      <path
         inkscape:connector-curvature="0"
         id="path120"
         style="fill:#ffffff;fill-opacity:1;fill-rule:evenodd;stroke:none"
         d="m 294.46496,473.70856 -0.40625,0.40625 c -0.2225,0.22375 -0.2225,0.58875 0,0.81125 l 13.5925,13.59125 c 0.2225,0.22375 0.5875,0.22375 0.81,0 l 0.40625,-0.405 -14.4025,-14.40375 0,0" />
    </g>
  </g>
</svg>
